<?xml version="1.0" standalone="no"?>
<!DOCTYPE svg PUBLIC "-//W3C//DTD SVG 20010904//EN"
 "http://www.w3.org/TR/2001/REC-SVG-20010904/DTD/svg10.dtd">
<svg version="1.0" xmlns="http://www.w3.org/2000/svg"
 width="1757.000000pt" height="230.000000pt" viewBox="0 0 1757.000000 230.000000"
 preserveAspectRatio="xMidYMid meet">
<metadata>
Created by potrace 1.15, written by Peter Selinger 2001-2017
</metadata>
<g transform="translate(0.000000,230.000000) scale(0.100000,-0.100000)"
fill="#000000" stroke="none">
<path d="M14280 2198 c0 -7 149 -217 330 -466 182 -250 330 -460 330 -467 0
-7 -50 -82 -112 -167 -96 -132 -515 -702 -584 -795 -13 -17 -24 -36 -24 -42 0
-8 113 -11 363 -11 l364 0 197 283 c240 344 231 333 252 316 16 -13 125 -169
314 -446 l104 -153 363 0 c301 0 363 2 363 14 0 17 -52 90 -419 590 -256 348
-292 402 -282 418 6 10 160 226 341 478 l329 460 -367 0 -367 -1 -55 -91 c-86
-144 -300 -481 -315 -497 -14 -15 -72 67 -310 446 l-90 142 -362 1 c-284 0
-363 -3 -363 -12z"/>
<path d="M13255 2180 c-4 -6 -30 -10 -58 -10 -157 -1 -323 -42 -476 -117 -96
-47 -129 -69 -197 -135 -45 -43 -94 -97 -110 -121 -16 -23 -31 -44 -34 -47
-12 -11 -79 -168 -90 -208 -79 -306 -38 -627 109 -843 27 -40 152 -167 210
-213 42 -33 164 -93 241 -119 83 -28 196 -50 340 -67 122 -15 149 -14 305 3
213 25 363 72 487 156 58 39 234 221 243 252 4 13 12 30 18 38 27 32 74 192
90 301 8 58 10 141 5 260 -7 189 -22 257 -87 393 -39 81 -51 96 -147 192 -97
96 -96 96 -178 141 -138 75 -260 108 -481 129 -88 9 -165 18 -172 20 -7 2 -15
0 -18 -5z m157 -431 c168 -35 276 -145 313 -319 17 -83 20 -279 4 -366 -23
-130 -48 -185 -114 -250 -71 -70 -119 -91 -237 -103 -107 -12 -211 0 -278 32
-68 31 -160 124 -190 190 -64 143 -67 394 -8 576 16 51 32 75 82 125 33 34 79
71 101 81 90 42 221 56 327 34z"/>
<path d="M1116 2158 c2 -3 -15 -9 -38 -13 -66 -10 -138 -38 -192 -74 -17 -11
-35 -17 -40 -14 -6 3 -8 3 -4 -2 11 -11 -12 -36 -25 -28 -5 3 -7 2 -4 -4 3 -5
-4 -25 -17 -44 -42 -64 -51 -100 -51 -204 1 -125 22 -191 115 -350 10 -16 29
-51 44 -77 48 -88 76 -138 103 -185 75 -133 163 -321 163 -349 0 -28 -6 -34
-45 -53 -44 -20 -58 -21 -510 -21 l-465 0 0 -220 0 -220 756 0 c740 0 780 1
889 32 81 23 174 100 214 176 22 41 41 116 41 159 0 46 -19 127 -43 186 -9 20
-13 37 -10 37 4 0 -1 6 -12 13 -10 8 -15 19 -11 26 5 7 2 10 -6 9 -7 -2 -12 5
-12 14 1 10 -2 16 -6 13 -4 -3 -36 39 -71 93 -34 53 -114 176 -177 272 -63 96
-124 191 -135 210 -63 110 -73 153 -34 164 12 3 133 6 268 6 l247 0 10 -27 c5
-16 15 -48 22 -73 15 -52 30 -105 40 -140 8 -26 15 -53 50 -180 36 -133 42
-155 50 -180 4 -14 13 -45 20 -70 7 -25 16 -56 20 -70 4 -14 13 -43 19 -65 6
-22 24 -89 41 -150 17 -60 35 -128 41 -150 6 -22 15 -51 19 -65 4 -14 13 -45
20 -70 28 -100 33 -116 40 -130 6 -13 59 -15 369 -18 l361 -2 9 22 c5 13 14
48 20 78 7 30 21 93 32 140 20 83 29 127 48 213 5 23 14 63 20 90 6 26 15 66
21 90 42 190 54 226 64 197 2 -8 23 -91 46 -185 22 -93 45 -187 50 -207 6 -21
15 -56 20 -78 6 -22 15 -58 20 -80 6 -22 15 -59 21 -82 6 -24 15 -60 20 -80 5
-21 14 -56 21 -78 l11 -40 358 0 357 0 10 33 c12 40 21 72 32 117 5 19 17 69
29 110 11 41 34 129 51 195 17 66 40 154 51 195 12 41 24 91 29 110 5 19 17
69 29 110 11 41 34 129 51 195 17 66 40 154 51 195 12 41 24 91 29 110 5 19
18 71 30 115 12 44 25 96 30 115 18 74 48 186 55 203 17 40 1 42 -321 37
l-309 -5 -6 -35 c-4 -19 -17 -71 -29 -115 -12 -44 -25 -96 -30 -115 -4 -19
-19 -78 -33 -130 -13 -52 -27 -108 -31 -123 -4 -15 -10 -26 -14 -23 -4 2 -7
-12 -8 -32 -1 -31 -19 -107 -50 -209 -3 -13 -9 -23 -13 -23 -6 0 -47 147 -92
333 -5 20 -13 54 -19 75 -5 20 -14 57 -20 82 -6 25 -15 62 -20 83 -6 20 -14
54 -19 75 -5 20 -17 66 -26 102 l-17 65 -374 -3 c-285 -2 -376 -5 -379 -15 -2
-6 -6 -29 -10 -50 -3 -21 -9 -36 -13 -33 -4 2 -7 -12 -8 -32 0 -21 -5 -57 -11
-82 -6 -25 -16 -70 -23 -100 -7 -30 -16 -71 -20 -90 -4 -19 -13 -60 -20 -90
-7 -30 -16 -71 -20 -90 -17 -74 -32 -146 -39 -180 -11 -59 -32 -43 -53 40 -11
41 -23 89 -28 105 -8 28 -17 62 -70 260 -66 246 -67 252 -87 320 l-9 30 -726
5 c-399 3 -724 2 -722 -2z"/>
<path d="M5000 2144 c0 -9 -5 -12 -12 -8 -7 4 -8 3 -4 -4 3 -6 -3 -46 -15 -89
-12 -43 -24 -90 -26 -105 -3 -16 -10 -25 -16 -21 -5 3 -7 1 -4 -4 7 -11 -30
-164 -41 -173 -4 -3 -8 -16 -9 -30 -3 -47 -25 -120 -34 -115 -5 4 -6 0 -4 -8
3 -7 -2 -40 -11 -73 -9 -32 -18 -71 -21 -86 -3 -16 -10 -25 -16 -21 -6 3 -7 1
-3 -5 7 -12 -29 -162 -42 -171 -4 -3 -8 -17 -9 -31 -4 -53 -16 -90 -26 -83 -6
3 -7 1 -3 -5 7 -12 -13 -102 -23 -102 -3 0 -7 -12 -7 -27 -3 -47 -25 -123 -35
-118 -5 4 -6 0 -4 -8 3 -7 -1 -39 -10 -70 -23 -88 -45 -167 -62 -227 -17 -64
-26 -95 -46 -170 -9 -30 -12 -58 -8 -63 4 -4 155 -6 335 -5 l329 3 13 45 c8
25 29 99 47 165 l34 120 337 3 c364 2 341 6 339 -46 -1 -7 2 -11 5 -8 5 5 25
-49 83 -222 l21 -62 336 2 337 3 -3 25 c-2 14 -7 36 -11 50 -5 14 -14 43 -20
65 -33 121 -152 544 -160 570 -12 44 -23 83 -101 360 -38 138 -74 264 -79 280
-4 17 -13 48 -20 70 -6 22 -34 123 -63 225 l-53 185 -607 3 c-546 2 -608 1
-608 -14z m637 -465 c13 -35 34 -95 48 -134 13 -38 38 -108 55 -155 17 -47 40
-110 50 -140 10 -30 28 -81 39 -112 12 -32 21 -62 21 -68 0 -13 -456 -14 -465
-1 -3 5 -1 20 4 33 9 21 64 196 113 358 11 36 23 76 28 90 5 14 21 65 35 113
15 49 32 86 38 84 6 -2 21 -32 34 -68z"/>
<path d="M6850 1243 l0 -913 340 0 340 0 2 293 3 292 180 2 c164 2 364 9 457
18 20 1 51 8 70 14 18 6 45 12 61 13 15 1 27 6 27 11 0 5 7 7 15 4 8 -4 17 -2
20 4 4 5 11 7 16 4 5 -4 9 -1 9 4 0 6 6 11 13 11 15 0 66 26 122 62 94 60 197
195 211 276 14 84 20 142 18 177 -1 22 -3 62 -5 88 -1 26 -6 50 -10 53 -5 2
-6 11 -2 19 3 9 1 21 -5 28 -5 6 -15 28 -21 48 -12 38 -81 149 -111 179 -71
71 -185 135 -310 174 -121 39 -232 45 -877 49 l-563 3 0 -913z m1164 466 c34
-6 80 -16 104 -22 46 -12 116 -63 107 -77 -3 -5 -1 -11 5 -15 15 -9 12 -83 -5
-118 -20 -42 -66 -72 -140 -93 -46 -13 -116 -18 -303 -21 l-243 -5 2 181 1
181 206 0 c113 0 233 -5 266 -11z"/>
<path d="M8840 1235 l0 -905 300 0 300 0 0 905 0 905 -300 0 -300 0 0 -905z"/>
<path d="M10270 1235 l0 -907 658 5 c618 4 664 6 771 26 69 13 138 33 178 52
84 40 168 125 218 220 38 72 38 72 39 198 1 111 -2 132 -21 174 -58 125 -150
204 -293 252 -44 15 -80 31 -80 36 0 5 30 23 68 41 80 39 168 122 203 193 21
45 24 63 24 170 0 106 -3 126 -24 168 -36 74 -121 159 -199 200 -135 71 -121
70 -869 74 l-673 4 0 -906z m1089 512 c57 -38 81 -80 81 -143 0 -65 -38 -122
-103 -153 -41 -20 -62 -22 -240 -23 -108 -1 -199 1 -203 4 -8 9 -7 325 1 339
5 7 69 10 214 7 l208 -3 42 -28z m63 -700 c26 -15 57 -41 69 -58 27 -38 36
-117 19 -159 -18 -44 -84 -96 -138 -110 -40 -10 -469 -17 -477 -8 -4 5 -8 173
-7 276 l2 94 243 -4 242 -3 47 -28z"/>
</g>
</svg>
